<?xml version="1.0" encoding="UTF-8"?>
<svg id="Layer_2" data-name="Layer 2" xmlns="http://www.w3.org/2000/svg" xmlns:xlink="http://www.w3.org/1999/xlink" viewBox="0 0 94.79 95.23">
  <defs>
    <style>
      .cls-1 {
        fill: url(#linear-gradient-2);
      }

      .cls-2 {
        fill: url(#linear-gradient-6);
      }

      .cls-3 {
        fill: url(#linear-gradient-5);
        opacity: .79;
      }

      .cls-4 {
        fill: none;
      }

      .cls-5 {
        fill: url(#linear-gradient-7);
      }

      .cls-6 {
        fill: url(#linear-gradient-3);
      }

      .cls-7 {
        fill: url(#linear-gradient);
      }

      .cls-8 {
        fill: url(#linear-gradient-4);
      }

      .cls-9 {
        fill: url(#linear-gradient-8);
      }
    </style>
    <linearGradient id="linear-gradient" x1="55.27" y1="47.79" x2="10.32" y2="48.42" gradientUnits="userSpaceOnUse">
      <stop offset=".22" stop-color="#a5ea63"/>
      <stop offset=".24" stop-color="#a1e660"/>
      <stop offset=".39" stop-color="#8fd452"/>
      <stop offset=".56" stop-color="#83c84a"/>
      <stop offset=".73" stop-color="#80c548"/>
    </linearGradient>
    <linearGradient id="linear-gradient-2" x1="38.2" y1="47.65" x2="83.03" y2="48.52" gradientUnits="userSpaceOnUse">
      <stop offset="0" stop-color="#a5ea63"/>
      <stop offset=".03" stop-color="#a1e660"/>
      <stop offset=".25" stop-color="#8fd452"/>
      <stop offset=".48" stop-color="#83c84a"/>
      <stop offset=".73" stop-color="#80c548"/>
    </linearGradient>
    <linearGradient id="linear-gradient-3" x1="47.4" y1="71.99" x2="47.4" y2="21.55" gradientUnits="userSpaceOnUse">
      <stop offset="0" stop-color="#21cdcf"/>
      <stop offset=".09" stop-color="#20c3d0"/>
      <stop offset=".24" stop-color="#1eaad4"/>
      <stop offset=".31" stop-color="#1e9cd7"/>
      <stop offset=".33" stop-color="#1890de"/>
      <stop offset=".38" stop-color="#0d7bec"/>
      <stop offset=".44" stop-color="#056bf7"/>
      <stop offset=".51" stop-color="#0162fd"/>
      <stop offset=".6" stop-color="#0060ff"/>
      <stop offset=".99" stop-color="#10437c"/>
    </linearGradient>
    <linearGradient id="linear-gradient-4" x1="47.39" y1="75.65" x2="47.39" y2="94.38" gradientTransform="translate(132.72 37.93) rotate(90)" gradientUnits="userSpaceOnUse">
      <stop offset=".05" stop-color="#1e9cd7"/>
      <stop offset=".14" stop-color="#1488e3"/>
      <stop offset=".27" stop-color="#0972f2"/>
      <stop offset=".39" stop-color="#0264fb"/>
      <stop offset=".5" stop-color="#0060ff"/>
      <stop offset=".64" stop-color="#0163fc"/>
      <stop offset=".75" stop-color="#066df5"/>
      <stop offset=".86" stop-color="#0f7fea"/>
      <stop offset=".97" stop-color="#1c98da"/>
    </linearGradient>
    <linearGradient id="linear-gradient-5" x1="48.95" y1="44.93" x2="45.64" y2="-9.18" gradientUnits="userSpaceOnUse">
      <stop offset="0" stop-color="#fff"/>
      <stop offset=".09" stop-color="#ffecd8"/>
      <stop offset=".21" stop-color="#ffd4a7"/>
      <stop offset=".33" stop-color="#ffc07d"/>
      <stop offset=".46" stop-color="#ffb05a"/>
      <stop offset=".59" stop-color="#ffa340"/>
      <stop offset=".72" stop-color="#ff9a2d"/>
      <stop offset=".86" stop-color="#ff9421"/>
      <stop offset="1" stop-color="#ff931e"/>
    </linearGradient>
    <linearGradient id="linear-gradient-6" x1="64.83" y1="71.97" x2="64.83" y2="21.53" gradientUnits="userSpaceOnUse">
      <stop offset="0" stop-color="#21cdcf"/>
      <stop offset=".09" stop-color="#20c3d0"/>
      <stop offset=".24" stop-color="#1eaad4"/>
      <stop offset=".31" stop-color="#1e9cd7"/>
      <stop offset=".6" stop-color="#0060ff"/>
      <stop offset=".99" stop-color="#10437c"/>
    </linearGradient>
    <linearGradient id="linear-gradient-7" x1="41.22" y1="63.9" x2="7.95" y2="28.22" gradientUnits="userSpaceOnUse">
      <stop offset=".07" stop-color="#21cdcf"/>
      <stop offset=".14" stop-color="#20c3d0"/>
      <stop offset=".26" stop-color="#1eaad4"/>
      <stop offset=".31" stop-color="#1e9cd7"/>
      <stop offset=".6" stop-color="#0060ff"/>
      <stop offset=".95" stop-color="#10437c"/>
    </linearGradient>
    <linearGradient id="linear-gradient-8" x1="51.83" y1="56.04" x2="56.47" y2="72.92" xlink:href="#linear-gradient-6"/>
  </defs>
  <g id="Layer_1-2" data-name="Layer 1">
    <g>
      <path class="cls-7" d="m33.44,22.02c-14.4,0-26.08,11.67-26.08,26.08s11.67,26.08,26.08,26.08,26.08-11.67,26.08-26.08-11.67-26.08-26.08-26.08Zm10.82,34.31l3.16,3.17-3.16-3.17Zm3.1-3.02l3.13,3.14-3.13-3.14Z"/>
      <path class="cls-1" d="m60.98,22.02c-14.4,0-26.08,11.67-26.08,26.08s11.67,26.08,26.08,26.08,26.08-11.67,26.08-26.08-11.67-26.08-26.08-26.08Zm-16.73,34.31l3.16,3.17-3.16-3.17Zm3.1-3.02l3.13,3.14-3.13-3.14Z"/>
      <line class="cls-4" x1="66.89" y1="39.87" x2="68.31" y2="40.73"/>
      <path class="cls-6" d="m94.49,30c-.46-1.91-1.43-3.73-2.92-5.22-4.29-4.3-11.28-4.3-15.58,0l-28.59,28.59,3.04,3.05,28.59-28.59c1.27-1.27,2.95-1.97,4.75-1.97s3.48.7,4.75,1.97c1.06,1.06,1.69,2.38,1.89,3.75.3,2.03-.33,4.18-1.89,5.74l-28.6,28.6-9.49-9.49h0s-3.04-3.05-3.04-3.05h-.01s-28.6-28.59-28.6-28.59c-4.29-4.29-11.28-4.29-15.58,0-1.49,1.49-2.46,3.29-2.92,5.2-.87,3.61.11,7.57,2.92,10.38l31.64,31.64,12.53-12.53-3.04-3.04-9.49,9.49L6.26,37.31c-1.27-1.27-1.97-2.95-1.97-4.75,0-.06,0-.12,0-.18.04-1.73.74-3.34,1.96-4.57,2.62-2.62,6.87-2.62,9.49,0l28.6,28.6h0s3.04,3.05,3.04,3.05h0s0,0,0,0l12.53,12.53,31.64-31.64c2.15-2.15,3.22-4.97,3.22-7.79,0-.86-.1-1.72-.3-2.57Z"/>
      <rect class="cls-8" x="37.5" y="37.93" width="19.8" height="94.79" rx="9.9" ry="9.9" transform="translate(-37.93 132.72) rotate(-90)"/>
      <circle class="cls-3" cx="47.39" cy="19.49" r="19.49"/>
      <g>
        <path class="cls-2" d="m94.72,31.25c-.03-.22-.06-.43-.09-.64-.04-.22-.08-.43-.13-.64-.04-.18-.09-.36-.14-.54-.1-.36-.22-.7-.37-1.05-.07-.17-.14-.35-.22-.51-.06-.14-.13-.27-.2-.4-.03-.06-.06-.12-.09-.18-.08-.14-.15-.28-.23-.41-.13-.22-.27-.43-.41-.64-.07-.1-.15-.2-.23-.31-.08-.1-.15-.2-.24-.31-.07-.09-.14-.17-.22-.26-.07-.09-.15-.18-.23-.26-.11-.12-.22-.24-.34-.36-.15-.15-.31-.3-.47-.45-.11-.09-.22-.19-.33-.28-.03-.03-.06-.05-.09-.08-.09-.07-.17-.14-.26-.2-.32-.24-.64-.46-.98-.66-.07-.04-.14-.08-.21-.12-.06-.04-.13-.08-.2-.11-.09-.05-.18-.09-.27-.14,0,0-.01,0-.02-.01-.22-.12-.44-.22-.67-.31,0,0-.01,0-.01,0-.08-.03-.15-.06-.23-.09-.08-.04-.17-.07-.26-.1-.05-.02-.1-.04-.15-.06-.04-.01-.08-.03-.12-.04-.13-.04-.26-.09-.4-.13-.05-.01-.09-.03-.14-.04-.26-.08-.52-.14-.78-.19-.04-.01-.08-.02-.11-.03-.17-.03-.33-.06-.49-.08-.15-.02-.29-.04-.45-.05-.01,0-.03,0-.05,0-.04,0-.07,0-.1-.01-.33-.03-.67-.05-1.01-.05h-.01c-.35,0-.7.02-1.05.05h0c-.35.03-.7.08-1.05.15h0s-.06.01-.09.02c-.32.06-.63.14-.94.23h0s-.01,0-.02,0c-.04.01-.08.03-.12.04-.3.09-.59.19-.88.31-.03.01-.05.02-.08.03-.14.06-.28.12-.42.18-.16.07-.31.15-.47.23-.12.06-.24.13-.36.2-.09.05-.18.1-.27.16-.06.03-.13.07-.19.12-.08.05-.15.1-.23.15-.01,0-.03.02-.04.03-.11.07-.22.15-.32.23,0,0-.01,0-.02.01-.1.08-.2.15-.3.23-.11.09-.22.17-.32.27-.11.09-.21.18-.32.28-.1.09-.2.19-.31.29h0s-13.12,13.12-13.12,13.12l-15.48,15.47-12.53,12.53v6.07l12.52-12.52h0s.01,0,.01,0h.01s12.5,12.52,12.5,12.52h.01s0,.02,0,.02l31.64-31.64c2.15-2.15,3.23-4.97,3.23-7.79,0-.43-.03-.86-.08-1.29Zm-34.79,34.62l-9.48-9.48h0s28.6-28.6,28.6-28.6c.32-.32.66-.6,1.02-.84.18-.12.37-.23.56-.34.38-.2.78-.37,1.19-.49.63-.19,1.29-.29,1.97-.29h0c.44,0,.88.04,1.31.13.11.02.22.05.32.07.09.02.18.05.26.07.05.01.09.03.13.04.14.04.28.09.41.14.02,0,.04.01.05.02.06.03.13.05.2.08.27.12.53.25.78.41.07.04.14.09.21.13.18.12.35.24.52.38.05.04.09.07.14.11.14.12.28.24.41.38.09.09.18.18.26.28.02.02.04.04.06.06.08.09.16.18.23.28.11.14.22.29.32.44.08.13.16.26.23.38.06.1.11.21.17.31.08.16.15.32.22.48.05.13.1.25.14.38.08.24.15.5.2.75.03.13.05.26.07.38.08.52.09,1.06.04,1.59,0,.04,0,.08-.01.12,0,.04,0,.07-.01.1,0,.06-.01.12-.02.18-.01.09-.03.19-.05.28-.03.17-.07.33-.12.5-.02.07-.04.14-.06.2-.02.08-.05.15-.08.23-.07.2-.15.41-.24.61-.04.09-.08.17-.13.26-.03.07-.07.13-.1.2l-.19.32c-.04.07-.09.14-.14.2,0,.01-.01.02-.02.03-.05.08-.11.15-.17.23-.18.24-.37.46-.59.68l-28.6,28.6h0Z"/>
        <path class="cls-5" d="m47.38,59.43h0s-12.53,12.53-12.53,12.53l-3.04-3.04L3.22,40.32c-1.78-1.78-2.82-4.02-3.12-6.35-.18-1.34-.11-2.71.21-4.03.11-.44.24-.88.4-1.31.53-1.42,1.37-2.75,2.51-3.89,4.3-4.29,11.28-4.29,15.58,0l28.6,28.6-3.04,3.04L15.76,27.79c-2.62-2.61-6.87-2.61-9.49,0-.08.08-.15.15-.22.23-1.06,1.17-1.66,2.64-1.73,4.21,0,.04,0,.08,0,.13,0,.06,0,.12,0,.18,0,1.79.7,3.48,1.97,4.75l28.6,28.6h0v6.07l12.52-12.52h0Z"/>
      </g>
      <polygon class="cls-9" points="59.91 65.9 59.91 71.97 47.4 59.46 50.44 56.42 59.91 65.9"/>
    </g>
  </g>
</svg>